<?xml version="1.0" standalone="no"?>
<!DOCTYPE svg PUBLIC "-//W3C//DTD SVG 20010904//EN"
 "http://www.w3.org/TR/2001/REC-SVG-20010904/DTD/svg10.dtd">
<svg version="1.0" xmlns="http://www.w3.org/2000/svg"
 width="260.000000pt" height="260.000000pt" viewBox="0 0 260.000000 260.000000"
 preserveAspectRatio="xMidYMid meet">
<metadata>
Created by potrace 1.11, written by Peter Selinger 2001-2013
</metadata>
<g transform="translate(0.000000,260.000000) scale(0.100000,-0.100000)"
fill="#000000" stroke="none">
<path d="M0 2368 l0 -233 83 82 c60 59 92 83 117 88 64 13 148 66 219 139 63
64 131 143 131 152 0 2 -124 4 -275 4 l-275 0 0 -232z"/>
<path d="M822 2580 c-17 -28 -15 -58 6 -68 20 -11 213 1 286 18 45 10 146 55
146 65 0 3 -96 5 -213 5 -201 0 -213 -1 -225 -20z"/>
<path d="M2412 2412 l3 -187 -204 3 c-213 5 -358 -6 -499 -37 l-82 -18 -20 34
c-21 36 -76 75 -100 71 -23 -5 -77 -115 -95 -195 -14 -59 -15 -87 -6 -156 5
-46 11 -90 13 -97 2 -9 -11 -14 -42 -16 -33 -3 -51 -10 -67 -29 -53 -60 -21
-91 102 -97 76 -4 96 -9 129 -32 22 -15 59 -32 83 -38 84 -21 136 -125 137
-273 1 -101 -13 -420 -20 -462 -6 -38 6 -50 117 -129 121 -85 189 -170 189
-236 0 -47 -39 -86 -169 -172 -72 -47 -131 -92 -131 -99 1 -32 18 -40 74 -34
99 10 212 97 278 213 16 30 34 52 39 49 17 -11 172 16 238 41 36 14 86 38 112
54 25 17 48 30 50 30 2 0 3 -84 1 -187 -3 -155 0 -194 13 -230 13 -34 15 -60
10 -113 -7 -67 -6 -70 14 -70 21 0 21 0 21 406 l0 406 -45 -55 c-79 -98 -235
-187 -326 -187 -28 0 -59 -4 -69 -10 -16 -8 -22 0 -53 65 -44 92 -142 192
-228 232 -56 26 -59 30 -54 58 3 16 10 83 16 150 11 136 14 141 103 168 123
38 380 53 574 34 l82 -8 0 120 0 121 -40 0 c-50 0 -105 -45 -114 -94 l-6 -33
-173 -6 c-172 -6 -281 -24 -369 -61 -21 -9 -39 -16 -40 -16 -2 0 -4 26 -5 58
0 32 -13 104 -28 160 -15 57 -26 105 -24 107 2 2 96 27 209 55 389 99 356 93
449 82 54 -6 87 -15 92 -24 5 -8 17 -26 28 -39 l20 -24 1 468 0 467 -96 0 -95
0 3 -188z"/>
<path d="M1002 2258 c-7 -7 -12 -18 -12 -26 0 -8 -12 -36 -27 -62 l-27 -48
-120 0 c-228 0 -531 -63 -798 -167 -16 -7 -18 -28 -18 -246 0 -131 2 -239 5
-239 4 0 18 6 33 14 20 10 87 16 232 21 188 6 221 5 396 -19 218 -30 342 -33
404 -11 23 8 44 15 46 15 2 0 17 -27 34 -60 45 -90 102 -300 80 -300 -11 0
-164 32 -168 35 -1 1 5 18 13 39 52 124 -118 221 -199 113 -19 -25 -27 -85
-16 -114 4 -9 -59 -13 -260 -17 -232 -4 -285 -8 -430 -33 l-165 -28 -3 -43
c-2 -23 0 -42 5 -42 4 0 58 9 120 20 342 60 832 50 1086 -20 34 -10 37 -14 37
-48 -1 -126 -62 -272 -156 -371 -66 -71 -112 -99 -204 -126 -30 -9 -82 -30
-115 -46 -82 -41 -225 -62 -370 -56 -139 6 -232 28 -329 77 l-77 38 3 -56 c3
-57 3 -57 48 -79 93 -46 194 -65 373 -70 158 -5 167 -6 162 -24 -10 -30 4 -59
28 -59 15 0 26 -10 35 -30 10 -21 21 -30 38 -30 35 0 32 36 -6 59 l-31 18 52
47 c58 53 166 108 254 131 34 9 122 18 200 21 77 3 150 7 162 10 27 5 38 36
23 64 -9 18 -20 20 -95 20 -47 0 -85 2 -85 5 0 3 16 26 36 52 81 106 128 234
138 375 3 37 10 77 16 88 8 16 8 22 -3 26 -10 3 -17 29 -21 77 -10 111 -43
233 -87 324 l-39 83 24 48 c49 96 61 263 26 374 -24 79 -84 174 -151 239 -51
50 -75 59 -97 37z"/>
<path d="M1363 438 l6 -23 -142 -1 c-194 0 -326 -38 -415 -118 -47 -42 -65
-81 -60 -127 3 -31 6 -34 37 -34 30 0 40 7 81 60 58 75 115 111 205 130 148
31 202 21 330 -61 82 -52 124 -41 111 31 -5 24 -3 35 5 35 8 0 10 12 6 37 -9
55 -47 69 -47 17 0 -22 -3 -23 -20 -14 -11 6 -29 29 -40 50 -14 27 -27 40 -41
40 -17 0 -20 -5 -16 -22z"/>
<path d="M1576 304 c-11 -29 -6 -81 9 -94 25 -21 45 4 38 48 -9 56 -34 80 -47
46z"/>
<path d="M2155 252 c-11 -9 -35 -36 -53 -59 -36 -46 -102 -83 -150 -83 -37 0
-52 -22 -52 -74 0 -36 0 -36 45 -36 25 0 45 5 45 10 0 6 7 10 15 10 22 0 87
34 125 67 77 64 120 183 68 183 -13 -1 -32 -8 -43 -18z"/>
<path d="M585 150 c-8 -13 15 -88 32 -102 33 -27 38 39 7 90 -15 24 -29 28
-39 12z"/>
<path d="M1113 130 c-52 -31 -75 -100 -33 -100 22 0 167 67 176 81 23 38 -87
53 -143 19z"/>
<path d="M2470 139 c0 -23 33 -79 46 -79 34 0 -4 89 -38 90 -5 0 -8 -5 -8 -11z"/>
<path d="M547 33 c-16 -15 -6 -33 18 -33 23 0 24 2 15 20 -11 21 -22 25 -33
13z"/>
</g>
</svg>
